<svg width="400" height="400" viewBox="0 0 400 400" fill="none" xmlns="http://www.w3.org/2000/svg">
<g clip-path="url(#clip0_85_10)">
<path d="M400 0H0V400H400V0Z" fill="#CFDEF5"/>
<path d="M186.587 83.2261C183.907 83.2259 181.234 83.4926 178.608 84.0223C177.63 79.1562 175.559 74.5746 172.551 70.622C169.542 66.6695 165.674 63.4489 161.238 61.2025C156.802 58.956 151.913 57.7422 146.939 57.6523C141.965 57.5624 137.036 58.5988 132.521 60.6835C128.488 49.8378 120.319 41.0231 109.797 36.1623C99.2745 31.3016 87.2521 30.7891 76.3524 34.7368C65.4527 38.6845 56.5601 46.7719 51.6145 57.2349C46.6689 67.6979 46.0716 79.6874 49.9528 90.588C40.3914 90.9476 31.3509 95.0263 24.7658 101.951C18.1807 108.876 14.5742 118.097 14.718 127.641C14.8618 137.185 18.7445 146.294 25.5353 153.019C32.3261 159.743 41.4854 163.549 51.0533 163.621H186.59C197.276 163.621 207.525 159.386 215.082 151.848C222.639 144.309 226.884 134.085 226.884 123.424C226.884 112.763 222.639 102.538 215.082 94.9997C207.525 87.4612 197.276 83.2261 186.59 83.2261H186.587Z" fill="white"/>
<path opacity="0.52" d="M251.282 76.7883C248.934 76.7879 246.592 77.0213 244.29 77.4852C243.434 73.2208 241.619 69.2058 238.983 65.742C236.346 62.2782 232.957 59.4559 229.069 57.4873C225.182 55.5188 220.898 54.4552 216.539 54.3767C212.18 54.2982 207.86 55.2068 203.904 57.0341C200.367 47.5339 193.209 39.8139 183.99 35.5573C174.771 31.3007 164.238 30.8529 154.69 34.3114C145.141 37.77 137.35 44.8543 133.016 54.0199C128.682 63.1854 128.156 73.6886 131.553 83.2394C123.112 83.464 115.099 86.9996 109.254 93.0793C103.409 99.159 100.202 107.293 100.329 115.716C100.456 124.139 103.907 132.172 109.933 138.074C115.959 143.975 124.075 147.269 132.519 147.239H251.282C260.646 147.239 269.627 143.528 276.248 136.923C282.87 130.317 286.59 121.358 286.59 112.016C286.59 102.675 282.87 93.7154 276.248 87.1098C269.627 80.5041 260.646 76.7931 251.282 76.7931V76.7883Z" fill="white"/>
<path d="M332.864 186.586C334.551 186.586 336.234 186.754 337.888 187.087C338.504 184.024 339.808 181.14 341.701 178.652C343.595 176.164 346.03 174.137 348.822 172.722C351.615 171.308 354.692 170.544 357.823 170.487C360.954 170.43 364.058 171.082 366.9 172.394C369.415 165.535 374.555 159.952 381.192 156.868C387.829 153.784 395.42 153.452 402.302 155.945C409.184 158.437 414.794 163.55 417.902 170.163C421.01 176.776 421.362 184.349 418.88 191.22C424.924 191.411 430.65 193.964 434.825 198.328C438.999 202.691 441.288 208.517 441.197 214.548C441.106 220.579 438.643 226.334 434.339 230.57C430.035 234.807 424.234 237.186 418.188 237.196H332.864C329.52 237.217 326.204 236.577 323.108 235.315C320.013 234.052 317.198 232.192 314.826 229.84C312.453 227.488 310.571 224.691 309.286 221.611C308.002 218.531 307.34 215.227 307.34 211.891C307.34 208.554 308.002 205.251 309.286 202.17C310.571 199.09 312.453 196.293 314.826 193.941C317.198 191.59 320.013 189.729 323.108 188.466C326.204 187.204 329.52 186.565 332.864 186.585V186.586Z" fill="white"/>
<path d="M-18.5882 245.961C-16.4191 245.961 -14.2554 246.177 -12.1293 246.605C-11.3374 242.666 -9.66076 238.958 -7.22528 235.759C-4.78979 232.559 -1.6589 229.952 1.93197 228.134C5.52285 226.316 9.48025 225.333 13.5066 225.26C17.5329 225.188 21.5234 226.026 25.178 227.714C26.7713 223.335 29.2135 219.313 32.3651 215.876C35.5167 212.439 39.3161 209.655 43.5462 207.683C47.7763 205.711 52.3544 204.589 57.0191 204.382C61.6837 204.175 66.3436 204.887 70.7326 206.476C75.1216 208.066 79.1538 210.502 82.599 213.646C86.0441 216.79 88.8348 220.58 90.8117 224.8C92.7885 229.02 93.9129 233.587 94.1204 238.241C94.328 242.894 93.6148 247.543 92.0215 251.921C99.7953 252.163 107.162 255.444 112.533 261.056C117.904 266.668 120.849 274.161 120.732 281.919C120.615 289.677 117.446 297.078 111.908 302.527C106.371 307.975 98.9083 311.034 91.1306 311.043H-18.5882C-27.2394 311.043 -35.5362 307.614 -41.6535 301.512C-47.7709 295.409 -51.2075 287.132 -51.2075 278.502C-51.2075 269.872 -47.7709 261.595 -41.6535 255.492C-35.5362 249.39 -27.2394 245.961 -18.5882 245.961V245.961Z" fill="white"/>
</g>
<defs>
<clipPath id="clip0_85_10">
<rect width="400" height="400" fill="white"/>
</clipPath>
</defs>
</svg>
