<svg width="400" height="400" viewBox="0 0 400 400" fill="none" xmlns="http://www.w3.org/2000/svg">
<g clip-path="url(#clip0_85_17)">
<path d="M400 0H0V400H400V0Z" fill="#243046"/>
<path opacity="0.06" d="M191.417 235.515C188.738 235.515 186.065 235.782 183.438 236.311C182.461 231.445 180.39 226.864 177.381 222.911C174.373 218.959 170.505 215.738 166.069 213.492C161.633 211.245 156.744 210.031 151.77 209.941C146.796 209.851 141.866 210.888 137.351 212.973C133.319 202.127 125.15 193.312 114.627 188.451C104.105 183.591 92.0827 183.078 81.183 187.026C70.2833 190.974 61.3907 199.061 56.4451 209.524C51.4995 219.987 50.9021 231.976 54.7834 242.877C45.222 243.237 36.1815 247.315 29.5964 254.24C23.0113 261.165 19.4048 270.386 19.5486 279.93C19.6924 289.474 23.5751 298.583 30.3659 305.308C37.1566 312.032 46.316 315.838 55.8839 315.91H191.42C202.107 315.91 212.356 311.675 219.913 304.137C227.469 296.598 231.715 286.374 231.715 275.713C231.715 265.052 227.469 254.827 219.913 247.289C212.356 239.75 202.107 235.515 191.42 235.515H191.417Z" fill="white"/>
<path opacity="0.04" d="M227.793 116.429C229.643 116.428 231.487 116.612 233.3 116.977C233.975 113.621 235.403 110.461 237.478 107.735C239.554 105.009 242.221 102.788 245.281 101.239C248.341 99.6895 251.712 98.8523 255.143 98.7904C258.574 98.7284 261.974 99.4432 265.088 100.881C266.445 97.1505 268.526 93.7232 271.212 90.7949C273.897 87.8666 277.134 85.4946 280.738 83.8144C284.343 82.1342 288.243 81.1786 292.218 81.0023C296.192 80.8259 300.163 81.4322 303.902 82.7866C307.642 84.1409 311.077 86.2168 314.013 88.8957C316.948 91.5746 319.326 94.804 321.01 98.3996C322.694 101.995 323.652 105.886 323.829 109.851C324.006 113.816 323.398 117.777 322.04 121.508C328.663 121.716 334.938 124.512 339.513 129.293C344.088 134.074 346.596 140.458 346.496 147.067C346.397 153.676 343.698 159.981 338.981 164.623C334.264 169.265 327.908 171.872 321.282 171.882H227.793C224.129 171.903 220.498 171.202 217.107 169.818C213.716 168.434 210.633 166.396 208.034 163.819C205.436 161.242 203.374 158.178 201.967 154.804C200.56 151.429 199.836 147.811 199.836 144.156C199.836 140.501 200.56 136.882 201.967 133.508C203.374 130.133 205.436 127.069 208.034 124.493C210.633 121.916 213.716 119.877 217.107 118.493C220.498 117.11 224.129 116.408 227.793 116.43V116.429Z" fill="white"/>
<path d="M297.942 97.518C306.922 97.5209 315.716 94.9662 323.291 90.1542C330.865 85.3422 336.905 78.4729 340.701 70.3539C344.496 62.2349 345.889 53.2037 344.715 44.3221C343.542 35.4405 339.851 27.0777 334.077 20.2168C342.697 22.9783 350.461 27.9035 356.623 34.5198C362.785 41.1362 367.14 49.2215 369.268 57.9998C371.396 66.7782 371.227 75.9549 368.777 84.6493C366.327 93.3438 361.678 101.264 355.276 107.65C348.874 114.036 340.935 118.674 332.219 121.117C323.503 123.561 314.304 123.729 305.505 121.605C296.706 119.482 288.601 115.137 281.969 108.989C275.337 102.842 270.4 95.0964 267.633 86.4973C276.115 93.6254 286.851 97.5294 297.942 97.518V97.518Z" fill="#FFEB98"/>
<path d="M350.571 29.0188C358.558 39.1428 362.546 51.8371 361.781 64.6977C361.015 77.5583 355.549 89.6924 346.417 98.8023C337.285 107.912 325.122 113.365 312.23 114.129C299.338 114.893 286.613 110.914 276.465 102.947C281.073 108.805 286.875 113.621 293.487 117.078C300.098 120.534 307.37 122.552 314.821 122.999C322.272 123.445 329.734 122.31 336.713 119.668C343.692 117.026 350.029 112.937 355.308 107.672C360.586 102.406 364.685 96.0836 367.333 89.1214C369.982 82.1592 371.12 74.7158 370.672 67.2825C370.224 59.8493 368.201 52.5953 364.736 45.9995C361.271 39.4037 356.443 33.6161 350.571 29.0188V29.0188Z" fill="#EFCF6E"/>
<path d="M310.532 118.238C312.726 118.238 314.914 118.456 317.065 118.89C317.865 114.906 319.56 111.155 322.023 107.919C324.486 104.684 327.652 102.047 331.284 100.208C334.915 98.3689 338.917 97.3752 342.989 97.3016C347.061 97.228 351.097 98.0764 354.793 99.783C358.047 90.8408 364.729 83.5545 373.369 79.5271C382.008 75.4996 391.898 75.0609 400.862 78.3074C409.825 81.5539 417.129 88.2197 421.167 96.8384C425.204 105.457 425.644 115.323 422.389 124.265C430.246 124.516 437.69 127.837 443.116 133.511C448.543 139.185 451.517 146.759 451.399 154.601C451.281 162.442 448.08 169.923 442.485 175.432C436.89 180.941 429.35 184.037 421.489 184.053H310.532C306.185 184.076 301.877 183.243 297.854 181.599C293.831 179.956 290.173 177.536 287.091 174.478C284.009 171.42 281.563 167.784 279.894 163.78C278.225 159.776 277.366 155.482 277.366 151.145C277.366 146.809 278.225 142.515 279.894 138.511C281.563 134.507 284.009 130.871 287.091 127.813C290.173 124.755 293.831 122.335 297.854 120.692C301.877 119.048 306.185 118.215 310.532 118.238V118.238Z" fill="#333E53"/>
<path opacity="0.06" d="M69.7737 56.0993C67.9051 56.0991 66.0411 56.2851 64.2095 56.6545C63.5278 53.2609 62.0836 50.0657 59.9856 47.3091C57.8875 44.5526 55.1903 42.3065 52.0967 40.7398C49.003 39.1731 45.5936 38.3266 42.1247 38.2639C38.6558 38.2012 35.2179 38.924 32.0694 40.3779C29.2971 32.7601 23.6048 26.553 16.2449 23.122C8.88491 19.691 0.460177 19.3173 -7.17601 22.0829C-14.8122 24.8486 -21.0343 30.5271 -24.4736 37.8693C-27.9128 45.2115 -28.2875 53.616 -25.5151 61.2338C-32.2066 61.4505 -38.5451 64.2804 -43.1654 69.1138C-47.7858 73.9473 -50.3184 80.3977 -50.2178 87.0758C-50.1172 93.7539 -47.3915 100.126 -42.6277 104.818C-37.8638 109.511 -31.443 112.15 -24.748 112.166H69.7728C77.2256 112.166 84.3732 109.212 89.6432 103.955C94.9131 98.6978 97.8738 91.5674 97.8738 84.1326C97.8738 76.6977 94.9131 69.5673 89.6432 64.3101C84.3732 59.0528 77.2256 56.0993 69.7728 56.0993H69.7737Z" fill="white"/>
<g opacity="0.92">
<path d="M173.052 110.681L173.495 111.578L174.488 111.721L173.77 112.419L173.94 113.404L173.053 112.94L172.166 113.404L172.336 112.419L171.618 111.721L172.61 111.578L173.052 110.681Z" fill="#FFF6D2"/>
</g>
<g opacity="0.51">
<path d="M241.651 79.8381L242.095 80.7345L243.087 80.8781L242.369 81.576L242.539 82.561L241.652 82.0965L240.765 82.561L240.935 81.576L240.217 80.8781L241.21 80.7345L241.651 79.8381Z" fill="#FFF6D2"/>
</g>
<g opacity="0.26">
<path d="M42.6174 130.922L43.0609 131.819L44.0532 131.962L43.3353 132.66L43.5053 133.645L42.6184 133.181L41.7314 133.645L41.9015 132.66L41.1836 131.962L42.1759 131.819L42.6174 130.922Z" fill="#FFF6D2"/>
</g>
<g opacity="0.92">
<path d="M42.6174 15.2598L43.0609 16.1562L44.0532 16.2998L43.3353 16.9976L43.5053 17.9827L42.6184 17.5181L41.7314 17.9827L41.9015 16.9976L41.1836 16.2998L42.1759 16.1562L42.6174 15.2598Z" fill="#FFF6D2"/>
</g>
<g opacity="0.92">
<path opacity="0.45" d="M223.294 23.9346L223.737 24.831L224.729 24.9746L224.012 25.6724L224.182 26.6575L223.295 26.1929L222.408 26.6575L222.578 25.6724L221.86 24.9746L222.852 24.831L223.294 23.9346Z" fill="#FFF6D2"/>
</g>
<g opacity="0.48">
<path d="M158.559 179.115L159.003 180.012L159.995 180.155L159.277 180.853L159.447 181.838L158.56 181.374L157.673 181.838L157.843 180.853L157.125 180.155L158.118 180.012L158.559 179.115Z" fill="#FFF6D2"/>
</g>
<g opacity="0.92">
<path d="M255.177 236.947L255.621 237.843L256.613 237.987L255.895 238.684L256.065 239.669L255.178 239.205L254.291 239.669L254.462 238.684L253.744 237.987L254.736 237.843L255.177 236.947Z" fill="#FFF6D2"/>
</g>
<g opacity="0.46">
<path d="M293.825 188.754L294.268 189.65L295.261 189.794L294.543 190.491L294.713 191.477L293.826 191.012L292.939 191.477L293.109 190.491L292.391 189.794L293.383 189.65L293.825 188.754Z" fill="#FFF6D2"/>
</g>
<g opacity="0.92">
<path d="M371.12 304.417L371.563 305.313L372.556 305.457L371.838 306.154L372.008 307.139L371.121 306.675L370.234 307.139L370.404 306.154L369.686 305.457L370.678 305.313L371.12 304.417Z" fill="#FFF6D2"/>
</g>
<g opacity="0.92">
<path d="M255.177 362.248L255.621 363.144L256.613 363.288L255.895 363.986L256.065 364.971L255.178 364.506L254.291 364.971L254.462 363.986L253.744 363.288L254.736 363.144L255.177 362.248Z" fill="#FFF6D2"/>
</g>
<g opacity="0.92">
<path d="M81.2644 342.971L81.7079 343.867L82.7001 344.011L81.9823 344.709L82.1523 345.694L81.2653 345.229L80.3784 345.694L80.5484 344.709L79.8306 344.011L80.8228 343.867L81.2644 342.971Z" fill="#FFF6D2"/>
</g>
</g>
<defs>
<clipPath id="clip0_85_17">
<rect width="400" height="400" fill="white"/>
</clipPath>
</defs>
</svg>
